<svg id="fc7b1c08-596b-4231-b43a-c858d806a37b" data-name="Layer 1" xmlns="http://www.w3.org/2000/svg" xmlns:xlink="http://www.w3.org/1999/xlink" width="382.28" height="382.28" viewBox="0 0 382.28 382.28"><defs><style>.ee035b74-a7e9-4b76-8933-570c199c3856{fill:url(#f670bf0e-ac2a-42a7-89fb-f9bb22f3105b);}.e354d1f0-8f47-4e4a-b0c3-e95b707e7cc5{fill:url(#a1ea5288-8f91-4261-bb4f-ddaf332e4ded);}.a68ce216-5be2-4256-b817-3ea5e77be0d6{fill:url(#ad36ca63-1a2c-437a-886d-42fa232ffedc);}</style><linearGradient id="f670bf0e-ac2a-42a7-89fb-f9bb22f3105b" x1="339.8" y1="266.31" x2="317.74" y2="309.28" gradientUnits="userSpaceOnUse"><stop offset="0" stop-color="#bcbcbc"/><stop offset="0.04" stop-color="#ddd"/><stop offset="0.22" stop-color="#fff"/><stop offset="1" stop-color="#919191"/></linearGradient><linearGradient id="a1ea5288-8f91-4261-bb4f-ddaf332e4ded" x1="111.07" y1="44.43" x2="70.29" y2="105.34" gradientUnits="userSpaceOnUse"><stop offset="0" stop-color="#bcbcbc"/><stop offset="0.04" stop-color="#ddd"/><stop offset="0.22" stop-color="#fff"/><stop offset="0.31" stop-color="#e9e9e9"/><stop offset="0.53" stop-color="#bababa"/><stop offset="0.73" stop-color="#989898"/><stop offset="0.89" stop-color="#848484"/><stop offset="1" stop-color="#7c7c7c"/></linearGradient><linearGradient id="ad36ca63-1a2c-437a-886d-42fa232ffedc" x1="215.94" y1="54.75" x2="221.31" y2="299.5" gradientUnits="userSpaceOnUse"><stop offset="0" stop-color="#bcbcbc"/><stop offset="0.08" stop-color="#ddd"/><stop offset="0.09" stop-color="#dfdfdf"/><stop offset="0.11" stop-color="#f1f1f1"/><stop offset="0.14" stop-color="#fcfcfc"/><stop offset="0.18" stop-color="#fff"/><stop offset="1" stop-color="#7a7a7a"/></linearGradient></defs><title>ribbon-grey</title><path class="ee035b74-a7e9-4b76-8933-570c199c3856" d="M322.72,325.78s15-7.58,15-27.43-3.46-23.76-11.63-32.09a22,22,0,0,0-3.4-3.11Z"/><path class="e354d1f0-8f47-4e4a-b0c3-e95b707e7cc5" d="M123.07,70.71S115.91,56.5,97.15,56.5s-22.45,3.27-30.33,11a21.09,21.09,0,0,0-2.94,3.22Z"/><path class="a68ce216-5be2-4256-b817-3ea5e77be0d6" d="M337.75,217.05v79.49l-240-240H177.2a37,37,0,0,1,26.18,10.84L326.91,190.88A37,37,0,0,1,337.75,217.05Z"/></svg>