<svg id="bae62668-d6bd-46e8-a544-ab2104df5f91" data-name="Layer 1" xmlns="http://www.w3.org/2000/svg" xmlns:xlink="http://www.w3.org/1999/xlink" width="382.28" height="382.28" viewBox="0 0 382.28 382.28"><defs><style>.ee3242a8-c77f-4cb1-98f7-a32f0d580e68{fill:url(#b2669e10-2bc2-4ed6-8479-ee4fa836360a);}.b8b3e47a-667a-408c-a2c0-2c89a1c82e6f{fill:url(#aa194195-ebd2-4744-8b13-c72230b18940);}.f403ac61-ca9e-471d-b6df-1ebbbfdc1617{fill:url(#efdb2b1f-1973-4cb3-9f2e-d0026c2b6635);}</style><linearGradient id="b2669e10-2bc2-4ed6-8479-ee4fa836360a" x1="322.75" y1="294.46" x2="337.09" y2="294.46" gradientUnits="userSpaceOnUse"><stop offset="0" stop-color="#486620"/><stop offset="0.61" stop-color="#709e33"/><stop offset="0.76" stop-color="#6e9c32"/><stop offset="0.83" stop-color="#699430"/><stop offset="0.88" stop-color="#60872c"/><stop offset="0.93" stop-color="#527425"/><stop offset="0.97" stop-color="#415d1e"/><stop offset="1" stop-color="#2e4215"/></linearGradient><linearGradient id="aa194195-ebd2-4744-8b13-c72230b18940" x1="591.43" y1="65.05" x2="575.01" y2="65.05" gradientTransform="translate(28.43 647.26) rotate(-90)" gradientUnits="userSpaceOnUse"><stop offset="0" stop-color="#709e32"/><stop offset="0.06" stop-color="#78a936"/><stop offset="0.16" stop-color="#8dc73f"/><stop offset="0.22" stop-color="#9bdb46"/><stop offset="1" stop-color="#4f7024"/></linearGradient><linearGradient id="efdb2b1f-1973-4cb3-9f2e-d0026c2b6635" x1="215.94" y1="54.75" x2="221.31" y2="299.5" gradientUnits="userSpaceOnUse"><stop offset="0" stop-color="#8cc63f"/><stop offset="0.04" stop-color="#d7ffa1"/><stop offset="0.14" stop-color="#8cc63f"/><stop offset="1" stop-color="#0d3d06"/></linearGradient></defs><title>green BIG</title><path class="ee3242a8-c77f-4cb1-98f7-a32f0d580e68" d="M322.72,325.78s15-7.58,15-27.43-3.46-23.76-11.63-32.09a22,22,0,0,0-3.4-3.11Z"/><path class="b8b3e47a-667a-408c-a2c0-2c89a1c82e6f" d="M123.07,70.71S115.91,56.5,97.15,56.5s-22.45,3.27-30.33,11a21.09,21.09,0,0,0-2.94,3.22Z"/><path class="f403ac61-ca9e-471d-b6df-1ebbbfdc1617" d="M337.75,217.05v79.49l-240-240H177.2a37,37,0,0,1,26.18,10.84L326.91,190.88A37,37,0,0,1,337.75,217.05Z"/></svg>